<svg width="14" height="14" fill="none" xmlns="http://www.w3.org/2000/svg"><path d="M11.432 1.585a7.117 7.117 0 00-.757-.541l-.46.744c.232.143.454.301.664.474l.553-.677zM12.703 2.943a7.127 7.127 0 00-.59-.721l-.64.598c.187.199.36.41.518.631l.712-.508z" fill="#282828"/><path d="M13.193 3.736l-.773.41a6.123 6.123 0 11-2.924-2.739l.356-.799a6.998 6.998 0 103.341 3.128z" fill="#282828"/><path d="M6.563 4.533a1.75 1.75 0 00-1.311-.593H3.065v6.124h2.187a1.75 1.75 0 001.156-3.062 1.75 1.75 0 00.155-2.47zM5.252 9.189H3.94V7.44h1.312a.875.875 0 010 1.75zm0-2.624H3.94v-1.75h1.312a.875.875 0 010 1.75zM11.812 7.877A2.089 2.089 0 009.844 5.69a2.089 2.089 0 00-1.968 2.187 2.088 2.088 0 001.968 2.187c.5-.004.976-.209 1.323-.568l-.621-.613a.993.993 0 01-.702.307 1.13 1.13 0 01-1.031-.875h3v-.438zm-3-.437a1.13 1.13 0 011.032-.875c.5.031.919.387 1.03.875H8.814zM10.938 3.94H8.75v.875h2.187V3.94z" fill="#282828"/></svg>