<svg width="54" height="54" fill="none" xmlns="http://www.w3.org/2000/svg"><g clip-path="url(#clip0)" fill="#282828"><path d="M53.291 31.996l-.027-.028a1.515 1.515 0 00-.012-.013l-5.397-5.545-.005-.003a.84.84 0 00-.595-.251l-.005-.002h-6.745V15.92l3.75 2.508c.007.005.016.006.022.01.005.004.007.01.013.013.042.026.088.039.132.056.023.01.046.023.07.03a.834.834 0 00.438.008c.023-.006.044-.018.067-.026.043-.015.086-.028.126-.05.026-.014.049-.034.073-.05.033-.023.068-.045.098-.072.024-.022.044-.05.065-.076.021-.025.047-.046.065-.075.004-.004.004-.009.006-.014.005-.008.012-.013.017-.02l5.062-8.438c.022-.038.026-.08.043-.12.02-.054.047-.106.056-.162.01-.053.007-.104.006-.157 0-.055.003-.108-.008-.162-.011-.053-.034-.1-.054-.15-.02-.05-.038-.1-.069-.146-.03-.046-.073-.083-.114-.123-.03-.031-.051-.069-.087-.095l-9.277-6.76c-.012-.009-.027-.01-.04-.017-.046-.03-.097-.05-.15-.07-.054-.021-.106-.045-.162-.054-.015-.003-.025-.012-.04-.014L33.851.85c-.02-.003-.037.005-.055.004-.019-.001-.035-.011-.054-.011H20.24c-.017 0-.03.008-.047.01-.014 0-.026-.005-.04-.003l-6.761.843c-.015.002-.026.011-.041.015-.055.009-.106.032-.159.053-.053.02-.106.04-.153.07-.014.008-.027.01-.04.018L3.723 8.606c-.037.026-.057.065-.088.095-.04.041-.084.078-.114.124s-.048.096-.068.146c-.02.05-.044.097-.054.15-.011.054-.009.107-.009.162 0 .053-.004.105.006.158.01.056.035.108.057.16.017.04.019.083.043.121l5.061 8.438c.005.008.012.013.017.02.004.004.004.01.006.015.019.028.044.05.065.075.022.025.041.052.065.074.03.028.065.05.099.072.024.017.047.037.072.05.04.022.084.036.126.05.023.008.045.02.068.026a.82.82 0 00.437-.008c.024-.006.047-.02.07-.03.045-.017.09-.031.132-.056.006-.003.009-.009.014-.012.007-.004.015-.005.02-.01l3.751-2.509v10.237H6.75l-.007.002c-.1.001-.198.023-.293.06a.826.826 0 00-.3.19l-.005.005-5.389 5.537-.03.03-.016.018c-.005.004-.005.01-.01.014A2.517 2.517 0 000 33.75v16.877a2.534 2.534 0 002.531 2.531H51.47A2.534 2.534 0 0054 50.626V33.749c0-.67-.267-1.277-.694-1.73-.006-.008-.008-.017-.015-.023zm-38.103-3.31V14.34c0-.027-.012-.05-.015-.075a.955.955 0 00-.099-.324c-.012-.023-.014-.048-.028-.07-.015-.023-.04-.035-.056-.055a.817.817 0 00-.569-.305c-.026-.002-.05-.014-.076-.014-.027 0-.05.012-.075.015a.877.877 0 00-.325.099c-.021.012-.048.014-.07.029L9.55 16.533 5.34 9.517l8.478-6.176 5.645-.704c.47 3.74 3.662 6.644 7.528 6.644 3.866 0 7.06-2.906 7.529-6.647l5.668.707 8.478 6.175-4.209 7.016-4.327-2.894c-.022-.014-.047-.017-.07-.028a.791.791 0 00-.158-.065.806.806 0 00-.165-.034c-.026-.003-.049-.015-.076-.015-.028 0-.051.013-.078.016a.802.802 0 00-.314.093.779.779 0 00-.13.088.81.81 0 00-.123.122c-.018.021-.041.033-.056.056-.015.022-.017.047-.029.07a.878.878 0 00-.099.323c0 .027-.014.05-.014.075v14.347h-23.63zM21.152 2.53H32.83c-.411 2.858-2.87 5.063-5.84 5.063-2.968 0-5.426-2.205-5.838-5.063zm-7.651 26.156h-1.686a.843.843 0 100 1.688h30.37a.843.843 0 100-1.688h-1.68v-.843h6.388l3.286 3.375H3.822l3.285-3.375h6.395v.843zm-5.907 21.94h38.812v.843H7.594v-.843zm44.718 0a.844.844 0 01-.843.843h-3.375v-1.687a.843.843 0 00-.844-.844H6.75a.843.843 0 00-.844.844v1.688H2.531a.844.844 0 01-.844-.844V33.749c0-.227.092-.431.238-.582l.022-.022a.835.835 0 01.584-.24H51.47c.23 0 .437.093.589.242l.013.015a.836.836 0 01.242.587v16.877z"/><path d="M6.776 37.124h-.008a.84.84 0 00-.839.844.847.847 0 001.692 0 .844.844 0 00-.845-.844zM10.151 37.124h-.008a.84.84 0 00-.839.844.847.847 0 001.692 0 .844.844 0 00-.845-.844zM47.276 37.124h-.008a.84.84 0 00-.839.844.847.847 0 001.692 0 .844.844 0 00-.845-.844zM43.901 37.124h-.008a.84.84 0 00-.839.844.847.847 0 001.692 0 .844.844 0 00-.845-.844zM35.438 35.437H18.561a.843.843 0 00-.843.843v3.375c0 .467.377.844.843.844h16.875a.843.843 0 00.844-.844V36.28a.843.843 0 00-.843-.843zm-.844 3.375H19.406v-1.688h15.188v1.688z"/></g><defs><clipPath id="clip0"><path fill="#fff" d="M0 0h54v54H0z"/></clipPath></defs></svg>