<svg width="60" height="60" fill="none" xmlns="http://www.w3.org/2000/svg"><path d="M52.38 23.662L32.498 3.779a5.278 5.278 0 00-7.456 0 5.27 5.27 0 00-.642 6.678l-.028.139A36.785 36.785 0 0114.28 29.453l-9.12 9.12a5.269 5.269 0 000 7.455l4.971 4.97a5.27 5.27 0 007.456 0l1.242-1.242 8.699 8.698a5.269 5.269 0 007.455 0 5.278 5.278 0 000-7.455l-3.727-3.728 1.242-1.243a5.269 5.269 0 000-7.455l-.844-.845a36.791 36.791 0 0113.91-5.94l.14-.029a5.278 5.278 0 006.676-.642 5.278 5.278 0 000-7.455zM15.101 48.514a1.757 1.757 0 01-2.485 0l-4.97-4.971a1.756 1.756 0 010-2.485l8.698-8.699 7.456 7.456-8.699 8.699zm17.397 4.97a1.76 1.76 0 010 2.485 1.76 1.76 0 01-2.485 0l-8.699-8.698 2.486-2.486 8.698 8.699zM26.285 42.3c.528-.528 1.319-1.337 2.567-2.403l1.16 1.16a1.756 1.756 0 010 2.486l-1.242 1.243-2.485-2.486zm.075-4.895l-7.606-7.606a40.244 40.244 0 008.556-16.296l15.346 15.346a40.24 40.24 0 00-16.296 8.556zm23.535-8.773a1.757 1.757 0 01-2.486 0L27.528 8.75a1.756 1.756 0 112.485-2.485l19.882 19.881a1.76 1.76 0 010 2.486z" fill="#282828"/><path d="M17.586 38.573a1.757 1.757 0 00-2.485 0l-2.485 2.485a1.757 1.757 0 102.485 2.485l2.485-2.485a1.757 1.757 0 000-2.485zM40.569 0c-.97 0-1.758.787-1.758 1.757v3.515a1.757 1.757 0 003.515 0V1.757C42.326.787 41.54 0 40.57 0zM54.627 14.059h-3.514a1.757 1.757 0 000 3.514h3.514a1.757 1.757 0 000-3.514zM52.356 4.03a1.757 1.757 0 00-2.485 0l-3.515 3.514a1.757 1.757 0 102.486 2.485l3.514-3.514a1.757 1.757 0 000-2.486z" fill="#282828"/></svg>