<svg width="300" height="300" fill="none" xmlns="http://www.w3.org/2000/svg"><g clip-path="url(#clip0)"><path d="M108.833 284.193H51.848V153.5c0-7.21 5.845-13.056 13.057-13.056h30.873c7.21 0 13.056 5.845 13.056 13.056v130.693h-.001z" fill="url(#paint0_linear)"/><path d="M165.818 284.193h-56.985V113.706c0-7.211 5.845-13.057 13.056-13.057h30.873c7.211 0 13.057 5.846 13.057 13.057v170.487h-.001z" fill="url(#paint1_linear)"/><path d="M222.804 284.193h-56.985V73.013c0-7.211 5.845-13.057 13.056-13.057h30.873c7.211 0 13.057 5.845 13.057 13.056v211.181h-.001z" fill="url(#paint2_linear)"/><path d="M279.789 284.193h-56.985v-108.58c0-7.211 5.845-13.057 13.056-13.057h30.873c7.211 0 13.057 5.845 13.057 13.057v108.58h-.001z" fill="url(#paint3_linear)"/><path d="M165.819 284.193v-73.708L108.833 153.5v130.693h56.986z" fill="url(#paint4_linear)"/><path d="M222.804 284.193V170.691l-56.985-56.985v170.487h56.985z" fill="url(#paint5_linear)"/><path d="M223.221 172.393l.295-1.004a12.89 12.89 0 00-.295 1.004z" fill="url(#paint6_linear)"/><path d="M222.932 173.878a13.226 13.226 0 00-.128 1.734v108.581h56.986v-53.458l-56.858-56.857z" fill="url(#paint7_linear)"/><path d="M15.807 300C7.077 300 0 292.923 0 284.193V15.807C0 7.077 7.077 0 15.807 0s15.807 7.077 15.807 15.807v268.386c0 8.73-7.077 15.807-15.807 15.807z" fill="url(#paint8_linear)"/><path d="M0 284.193c0-8.73 7.077-15.807 15.807-15.807h268.386c8.73 0 15.807 7.077 15.807 15.807S292.923 300 284.193 300H15.807C7.077 300 0 292.923 0 284.193z" fill="url(#paint9_linear)"/><path d="M78.889 119.588a5.882 5.882 0 01-3.72-10.442l115.279-93.957a5.883 5.883 0 018.121.66l59.162 66.817a5.883 5.883 0 01-8.809 7.799l-55.418-62.589-110.902 90.39a5.862 5.862 0 01-3.713 1.322z" fill="url(#paint10_linear)"/><path d="M81.276 127.818c8.282 0 14.995-6.714 14.995-14.995 0-8.282-6.713-14.995-14.995-14.995-8.28 0-14.994 6.713-14.994 14.995 0 8.281 6.713 14.995 14.994 14.995z" fill="url(#paint11_linear)"/><path d="M88.443 99.648a14.93 14.93 0 011.82 7.167c0 8.281-6.713 14.995-14.995 14.995-2.595 0-5.037-.66-7.166-1.821 2.542 4.664 7.488 7.828 13.174 7.828 8.281 0 14.995-6.713 14.995-14.994 0-5.686-3.165-10.632-7.828-13.175z" fill="url(#paint12_linear)"/><path d="M139.559 79.657c8.281 0 14.994-6.713 14.994-14.994 0-8.282-6.713-14.995-14.994-14.995-8.282 0-14.995 6.713-14.995 14.995 0 8.281 6.713 14.994 14.995 14.994z" fill="url(#paint13_linear)"/><path d="M146.725 51.488c1.16 2.13 1.82 4.57 1.82 7.167 0 8.28-6.713 14.995-14.994 14.995-2.596 0-5.037-.66-7.167-1.821 2.543 4.663 7.489 7.828 13.174 7.828 8.282 0 14.995-6.713 14.995-14.995.001-5.685-3.164-10.631-7.828-13.174z" fill="url(#paint14_linear)"/><path d="M251.297 100.65c8.282 0 14.995-6.714 14.995-14.995 0-8.281-6.713-14.995-14.995-14.995-8.281 0-14.994 6.714-14.994 14.995 0 8.281 6.713 14.995 14.994 14.995z" fill="url(#paint15_linear)"/><path d="M258.464 72.48c1.16 2.13 1.82 4.571 1.82 7.167 0 8.281-6.713 14.995-14.994 14.995a14.93 14.93 0 01-7.167-1.82c2.542 4.663 7.488 7.827 13.174 7.827 8.281 0 14.995-6.713 14.995-14.994 0-5.686-3.165-10.632-7.828-13.174z" fill="url(#paint16_linear)"/><path d="M194.312 34.891c8.281 0 14.994-6.713 14.994-14.994 0-8.282-6.713-14.995-14.994-14.995-8.282 0-14.995 6.713-14.995 14.995 0 8.28 6.713 14.994 14.995 14.994z" fill="url(#paint17_linear)"/><path d="M201.478 6.722c1.16 2.13 1.82 4.57 1.82 7.167 0 8.28-6.713 14.994-14.994 14.994-2.596 0-5.037-.66-7.167-1.82 2.543 4.663 7.488 7.828 13.174 7.828 8.281 0 14.995-6.713 14.995-14.995 0-5.685-3.165-10.631-7.828-13.174z" fill="url(#paint18_linear)"/></g><defs><linearGradient id="paint0_linear" x1="60.028" y1="212.319" x2="111.245" y2="212.319" gradientUnits="userSpaceOnUse"><stop stop-color="#CDEC7A"/><stop offset=".34" stop-color="#C1EA76"/><stop offset=".956" stop-color="#A1E66B"/><stop offset="1" stop-color="#9EE66A"/></linearGradient><linearGradient id="paint1_linear" x1="122.101" y1="192.421" x2="173.171" y2="192.421" gradientUnits="userSpaceOnUse"><stop stop-color="#FFD945"/><stop offset=".304" stop-color="#FFCD3E"/><stop offset=".856" stop-color="#FFAD2B"/><stop offset="1" stop-color="#FFA325"/></linearGradient><linearGradient id="paint2_linear" x1="168.156" y1="172.075" x2="231.871" y2="172.075" gradientUnits="userSpaceOnUse"><stop stop-color="#FF7044"/><stop offset=".235" stop-color="#FE653C"/><stop offset=".651" stop-color="#FB4628"/><stop offset="1" stop-color="#F82814"/></linearGradient><linearGradient id="paint3_linear" x1="232.231" y1="223.375" x2="281.453" y2="223.375" gradientUnits="userSpaceOnUse"><stop stop-color="#CDEC7A"/><stop offset=".34" stop-color="#C1EA76"/><stop offset=".956" stop-color="#A1E66B"/><stop offset="1" stop-color="#9EE66A"/></linearGradient><linearGradient id="paint4_linear" x1="172.669" y1="252.924" x2="47.013" y2="185.845" gradientUnits="userSpaceOnUse"><stop stop-color="#E87264" stop-opacity="0"/><stop offset=".652" stop-color="#F67150" stop-opacity=".652"/><stop offset="1" stop-color="#FF7044"/></linearGradient><linearGradient id="paint5_linear" x1="231.962" y1="232.162" x2="120.949" y2="176.42" gradientUnits="userSpaceOnUse"><stop stop-color="#F82814" stop-opacity="0"/><stop offset=".125" stop-color="#ED2819" stop-opacity=".125"/><stop offset=".452" stop-color="#D42724" stop-opacity=".452"/><stop offset=".753" stop-color="#C5272B" stop-opacity=".753"/><stop offset="1" stop-color="#C0272D"/></linearGradient><linearGradient id="paint6_linear" x1="223.27" y1="171.891" x2="223.525" y2="171.891" gradientUnits="userSpaceOnUse"><stop stop-color="#CDEC7A"/><stop offset=".34" stop-color="#C1EA76"/><stop offset=".956" stop-color="#A1E66B"/><stop offset="1" stop-color="#9EE66A"/></linearGradient><linearGradient id="paint7_linear" x1="274.58" y1="253.556" x2="173.961" y2="205.844" gradientUnits="userSpaceOnUse"><stop stop-color="#9EE66A" stop-opacity="0"/><stop offset=".152" stop-color="#93E267" stop-opacity=".152"/><stop offset=".417" stop-color="#77D660" stop-opacity=".417"/><stop offset=".76" stop-color="#49C254" stop-opacity=".76"/><stop offset="1" stop-color="#25B34B"/></linearGradient><linearGradient id="paint8_linear" x1="4.251" y1="150" x2="58.069" y2="150" gradientUnits="userSpaceOnUse"><stop stop-color="#F0DDFC"/><stop offset=".447" stop-color="#C1AEC7"/><stop offset="1" stop-color="#8A7889"/></linearGradient><linearGradient id="paint9_linear" x1="150" y1="272.637" x2="150" y2="326.454" gradientUnits="userSpaceOnUse"><stop stop-color="#F0DDFC"/><stop offset=".447" stop-color="#C1AEC7"/><stop offset="1" stop-color="#8A7889"/></linearGradient><linearGradient id="paint10_linear" x1="244.881" y1="118.108" x2="102.337" y2="50.516" gradientUnits="userSpaceOnUse"><stop stop-color="#FF7044"/><stop offset=".235" stop-color="#FE653C"/><stop offset=".651" stop-color="#FB4628"/><stop offset="1" stop-color="#F82814"/></linearGradient><linearGradient id="paint11_linear" x1="67.692" y1="99.239" x2="82.559" y2="114.105" gradientUnits="userSpaceOnUse"><stop stop-color="#18CFFC"/><stop offset="1" stop-color="#4A98F7"/></linearGradient><linearGradient id="paint12_linear" x1="78.157" y1="120.888" x2="111.266" y2="95.309" gradientUnits="userSpaceOnUse"><stop stop-color="#0469BC" stop-opacity="0"/><stop offset="1" stop-color="#0469BC"/></linearGradient><linearGradient id="paint13_linear" x1="125.975" y1="51.079" x2="140.84" y2="65.945" gradientUnits="userSpaceOnUse"><stop stop-color="#18CFFC"/><stop offset="1" stop-color="#4A98F7"/></linearGradient><linearGradient id="paint14_linear" x1="136.44" y1="72.729" x2="169.548" y2="47.15" gradientUnits="userSpaceOnUse"><stop stop-color="#0469BC" stop-opacity="0"/><stop offset="1" stop-color="#0469BC"/></linearGradient><linearGradient id="paint15_linear" x1="237.713" y1="72.071" x2="252.58" y2="86.937" gradientUnits="userSpaceOnUse"><stop stop-color="#18CFFC"/><stop offset="1" stop-color="#4A98F7"/></linearGradient><linearGradient id="paint16_linear" x1="248.178" y1="93.721" x2="281.287" y2="68.141" gradientUnits="userSpaceOnUse"><stop stop-color="#0469BC" stop-opacity="0"/><stop offset="1" stop-color="#0469BC"/></linearGradient><linearGradient id="paint17_linear" x1="180.727" y1="6.312" x2="195.594" y2="21.179" gradientUnits="userSpaceOnUse"><stop stop-color="#18CFFC"/><stop offset="1" stop-color="#4A98F7"/></linearGradient><linearGradient id="paint18_linear" x1="191.192" y1="27.962" x2="224.301" y2="2.383" gradientUnits="userSpaceOnUse"><stop stop-color="#0469BC" stop-opacity="0"/><stop offset="1" stop-color="#0469BC"/></linearGradient><clipPath id="clip0"><path fill="#fff" d="M0 0h300v300H0z"/></clipPath></defs></svg>