<svg width="340" height="340" fill="none" xmlns="http://www.w3.org/2000/svg"><g clip-path="url(#clip0)"><path d="M29.824 48.266C26.627 41.658 29.392 33.71 36 30.513a13.22 13.22 0 016.684-1.288A22.532 22.532 0 0153.46 18.148c11.25-5.443 24.783-.735 30.226 10.515a22.55 22.55 0 012.214 8.411c5.021-.167 9.91 2.569 12.239 7.383 3.152 6.514.426 14.348-6.088 17.5-5.916 2.862-12.91.865-16.506-4.403-.756.485-1.545.934-2.373 1.335-8.895 4.304-19.212 2.258-25.835-4.346-6.559 3.018-14.353.25-17.512-6.277z" fill="url(#paint0_linear)"/><path d="M33.166 24.064c6.135 0 11.108-4.973 11.108-11.108 0-6.134-4.973-11.107-11.108-11.107-6.134 0-11.107 4.973-11.107 11.107 0 6.135 4.973 11.108 11.107 11.108z" fill="url(#paint1_linear)"/><path d="M99.155 113.642h-26.79a6.864 6.864 0 01-6.865-6.864V64.046a6.864 6.864 0 016.864-6.864h26.79a6.864 6.864 0 016.865 6.864v42.732a6.863 6.863 0 01-6.864 6.864z" fill="url(#paint2_linear)"/><path d="M90.667 235.484h-80v102.667h80V235.484z" fill="url(#paint3_linear)"/><path d="M94 257.483H10.846c-3.407 0-5.846-3.289-4.857-6.551l8.251-27.18a5.076 5.076 0 014.858-3.602H94v37.333z" fill="url(#paint4_linear)"/><path d="M329.334 235.484h-80.001v102.667h80.001V235.484z" fill="url(#paint5_linear)"/><path d="M329.333 311.253l-53.75-53.751h-26.25v80.648h80v-26.897z" fill="url(#paint6_linear)"/><path d="M246 257.483h83.154c3.407 0 5.846-3.289 4.858-6.551l-8.252-27.18a5.076 5.076 0 00-4.858-3.602H246v37.333z" fill="url(#paint7_linear)"/><path d="M275.627 125.735v212.413H64.4V125.735L170 22.202l105.627 103.533z" fill="url(#paint8_linear)"/><path d="M64.4 125.735v12.17l200.244 200.243h10.983V125.735L170 22.202 64.4 125.735z" fill="url(#paint9_linear)"/><path d="M275.627 189.931v148.218H208.94L64.4 193.61v-3.679h211.227z" fill="url(#paint10_linear)"/><path d="M242.989 338.149H139.685l-56.787-56.787c-2.5-1.621-4.163-4.433-4.163-7.623v-45.704c0-5.007 4.076-9.084 9.084-9.084h32.95c3.197 0 6.009 1.664 7.63 4.164l-.247.196 114.837 114.838z" fill="url(#paint11_linear)"/><path d="M120.769 277.498H87.821a3.762 3.762 0 01-3.761-3.762v-45.698a3.762 3.762 0 013.761-3.762h32.948a3.762 3.762 0 013.762 3.762v45.698a3.761 3.761 0 01-3.762 3.762z" fill="#503837"/><path d="M120.768 282.824H87.821c-5.01 0-9.087-4.077-9.087-9.087v-45.698c0-5.01 4.077-9.087 9.087-9.087h32.947c5.011 0 9.087 4.077 9.087 9.087v45.698c.001 5.01-4.076 9.087-9.087 9.087zm-31.383-10.651h29.82v-42.571h-29.82v42.571z" fill="#fff"/><path d="M275.634 237.803v100.346h-3.241l-56.787-56.787c-2.507-1.621-4.171-4.433-4.171-7.623v-45.704c0-5.007 4.076-9.084 9.091-9.084h32.942c3.198 0 6.01 1.664 7.631 4.164l.131.102-.088.095 14.492 14.491z" fill="url(#paint12_linear)"/><path d="M253.47 277.498h-32.947a3.762 3.762 0 01-3.762-3.762v-45.698a3.762 3.762 0 013.762-3.762h32.947a3.762 3.762 0 013.762 3.762v45.698a3.761 3.761 0 01-3.762 3.762z" fill="#503837"/><path d="M253.472 282.824h-32.948c-5.01 0-9.087-4.077-9.087-9.087v-45.698c0-5.01 4.077-9.087 9.087-9.087h32.948c5.01 0 9.087 4.077 9.087 9.087v45.698c0 5.01-4.077 9.087-9.087 9.087zm-31.385-10.651h29.82v-42.571h-29.82v42.571z" fill="#fff"/><path d="M148.004 338.146V222.753a9.216 9.216 0 019.216-9.216h25.591a9.215 9.215 0 019.215 9.216v115.393h-44.022z" fill="#816965"/><path d="M197.476 338.146h-10.901V225.895c0-3.798-3.108-6.907-6.907-6.907h-19.307a6.907 6.907 0 00-6.907 6.907v112.251h-10.901v-119.46c0-5.854 4.746-10.599 10.599-10.599h33.724c5.854 0 10.599 4.745 10.599 10.599v119.46h.001z" fill="#503837"/><path d="M162.207 261.822a4.97 4.97 0 10-.002-9.94 4.97 4.97 0 00.002 9.94z" fill="#fff"/><path d="M275.634 309.064H64.394v29.081h211.24v-29.081z" fill="#654E48"/><path d="M62.08 326.783c0 4.014-.758 7.844-2.145 11.364H2.145A30.924 30.924 0 010 326.783c0-3.908.72-7.644 2.04-11.085 4.462-11.674 15.764-19.955 29-19.955 13.238 0 24.54 8.282 29.002 19.955a30.911 30.911 0 012.038 11.085z" fill="url(#paint13_linear)"/><path d="M82.097 329.904c0 2.911-.55 5.689-1.556 8.243H38.619a22.44 22.44 0 01-1.556-8.243c0-2.835.523-5.545 1.48-8.042 3.237-8.468 11.436-14.475 21.038-14.475s17.801 6.007 21.038 14.475a22.448 22.448 0 011.478 8.042z" fill="url(#paint14_linear)"/><path d="M340 324.9c0 4.679-.885 9.143-2.501 13.246h-67.365a36.065 36.065 0 01-2.501-13.246c0-4.555.84-8.909 2.378-12.922 5.202-13.608 18.376-23.261 33.806-23.261 15.429 0 28.604 9.653 33.805 23.261A36.021 36.021 0 01340 324.9z" fill="url(#paint15_linear)"/><path d="M275.626 156.121v112.58l-135.873-135.88c-2.667-1.606-4.46-4.52-4.46-7.853V99.441c0-19.133 15.574-34.7 34.707-34.7 10.36 0 19.674 4.574 26.04 11.793l79.586 79.587z" fill="url(#paint16_linear)"/><path d="M260.146 145.168H82.591c-4.235 0-7.678 3.444-7.678 7.678v34.088h5.333v-34.088a2.348 2.348 0 012.345-2.345h10.62v36.433h5.334v-36.433h15.843v36.433h5.334v-36.433h15.843v36.433h5.333v-36.433h15.844v36.433h5.333v-36.433h15.845v36.433h5.333v-36.433h15.844v36.433h5.333v-36.433h15.844v36.433h5.333v-36.433h15.844v36.433h5.333v-36.433h13.36a2.347 2.347 0 012.344 2.345v34.088h5.333v-34.088c.003-4.234-3.441-7.678-7.675-7.678z" fill="#654E48"/><path d="M280.005 181.401V198.5a4.6 4.6 0 01-4.601 4.601H64.597a4.6 4.6 0 01-4.601-4.601v-17.099a4.601 4.601 0 014.6-4.602h210.808a4.601 4.601 0 014.601 4.602z" fill="url(#paint17_linear)"/><path d="M313.444 144.253L177.056 7.82c-3.887-3.888-10.19-3.888-14.078 0L26.556 144.242a6.511 6.511 0 000 9.209l5.814 5.814a6.511 6.511 0 009.21 0L168.163 32.682a2.62 2.62 0 013.706 0L298.42 159.276a6.513 6.513 0 009.21 0l5.814-5.814a6.51 6.51 0 000-9.209z" fill="url(#paint18_linear)"/><path d="M177.057 7.82a9.923 9.923 0 00-7.039-2.915v27.01c.67 0 1.341.257 1.853.768l126.55 126.594a6.511 6.511 0 009.21 0l5.813-5.813a6.511 6.511 0 000-9.21L177.057 7.82z" fill="url(#paint19_linear)"/><path d="M195.522 128.609h-51.043a3.644 3.644 0 01-3.644-3.644V99.443c0-16.108 13.059-29.166 29.167-29.166 16.108 0 29.166 13.058 29.166 29.166v25.522a3.647 3.647 0 01-3.646 3.644z" fill="#654E48"/><path d="M170 64.74c-19.136 0-34.703 15.568-34.703 34.703v25.521c0 5.063 4.118 9.182 9.182 9.182h51.043c5.064 0 9.182-4.119 9.182-9.182V99.442C204.703 80.307 189.136 64.74 170 64.74zm23.437 31.75h-17.899V76.476c9.431 2.275 16.672 10.22 17.899 20.012zm-28.975-20.013v20.012h-17.899c1.228-9.793 8.467-17.737 17.899-20.012zm-18.09 31.088h18.09v15.506h-18.09v-15.506zm29.166 15.506v-15.506h18.09v15.506h-18.09z" fill="#fff"/></g><defs><linearGradient id="paint0_linear" x1="16.979" y1="23.182" x2="147.783" y2="68.689" gradientUnits="userSpaceOnUse"><stop stop-color="#E2EDF2"/><stop offset="1" stop-color="#9FC7E2"/></linearGradient><linearGradient id="paint1_linear" x1="29.563" y1="11.71" x2="48.823" y2="18.412" gradientUnits="userSpaceOnUse"><stop stop-color="#E2EDF2"/><stop offset="1" stop-color="#9FC7E2"/></linearGradient><linearGradient id="paint2_linear" x1="74.905" y1="74.57" x2="88.345" y2="88.003" gradientUnits="userSpaceOnUse"><stop stop-color="#816965"/><stop offset="1" stop-color="#654E48"/></linearGradient><linearGradient id="paint3_linear" x1="50.666" y1="248.493" x2="50.666" y2="339.665" gradientUnits="userSpaceOnUse"><stop stop-color="#FFE7A5"/><stop offset=".966" stop-color="#FFBF5C"/></linearGradient><linearGradient id="paint4_linear" x1="49.882" y1="224.881" x2="49.882" y2="258.04" gradientUnits="userSpaceOnUse"><stop stop-color="#FF5D00"/><stop offset="1" stop-color="#D54003"/></linearGradient><linearGradient id="paint5_linear" x1="289.327" y1="248.493" x2="289.327" y2="339.665" gradientUnits="userSpaceOnUse"><stop stop-color="#FFE7A5"/><stop offset=".966" stop-color="#FFBF5C"/></linearGradient><linearGradient id="paint6_linear" x1="287.46" y1="320.112" x2="204.535" y2="246.214" gradientUnits="userSpaceOnUse"><stop stop-color="#FF5D00" stop-opacity="0"/><stop offset="1" stop-color="#D54003"/></linearGradient><linearGradient id="paint7_linear" x1="290.111" y1="224.881" x2="290.111" y2="258.04" gradientUnits="userSpaceOnUse"><stop stop-color="#FF5D00"/><stop offset="1" stop-color="#D54003"/></linearGradient><linearGradient id="paint8_linear" x1="170.01" y1="182.368" x2="170.01" y2="406.023" gradientUnits="userSpaceOnUse"><stop stop-color="#FFE7A5"/><stop offset=".966" stop-color="#FFBF5C"/><stop offset="1" stop-color="#DB9E36"/></linearGradient><linearGradient id="paint9_linear" x1="147.183" y1="108.997" x2="86.038" y2="47.852" gradientUnits="userSpaceOnUse"><stop stop-color="#FF5D00" stop-opacity="0"/><stop offset="1" stop-color="#D54003"/></linearGradient><linearGradient id="paint10_linear" x1="177.961" y1="241.127" x2="154.035" y2="92.617" gradientUnits="userSpaceOnUse"><stop stop-color="#FF5D00" stop-opacity="0"/><stop offset="1" stop-color="#D54003"/></linearGradient><linearGradient id="paint11_linear" x1="145.444" y1="292.039" x2="50.153" y2="196.747" gradientUnits="userSpaceOnUse"><stop stop-color="#FF5D00" stop-opacity="0"/><stop offset="1" stop-color="#D54003"/></linearGradient><linearGradient id="paint12_linear" x1="262.49" y1="276.384" x2="201.478" y2="215.372" gradientUnits="userSpaceOnUse"><stop stop-color="#FF5D00" stop-opacity="0"/><stop offset="1" stop-color="#D54003"/></linearGradient><linearGradient id="paint13_linear" x1="13.535" y1="307.46" x2="51.838" y2="345.759" gradientUnits="userSpaceOnUse"><stop stop-color="#9EB644"/><stop offset="1" stop-color="#738611"/></linearGradient><linearGradient id="paint14_linear" x1="46.88" y1="315.884" x2="74.666" y2="343.67" gradientUnits="userSpaceOnUse"><stop stop-color="#9EB644"/><stop offset="1" stop-color="#738611"/></linearGradient><linearGradient id="paint15_linear" x1="283.407" y1="302.373" x2="328.052" y2="347.025" gradientUnits="userSpaceOnUse"><stop stop-color="#9EB644"/><stop offset="1" stop-color="#738611"/></linearGradient><linearGradient id="paint16_linear" x1="218.528" y1="155.462" x2="120.844" y2="57.778" gradientUnits="userSpaceOnUse"><stop stop-color="#FF5D00" stop-opacity="0"/><stop offset="1" stop-color="#D54003"/></linearGradient><linearGradient id="paint17_linear" x1="169.997" y1="179.601" x2="169.997" y2="214.494" gradientUnits="userSpaceOnUse"><stop stop-color="#FF5D00"/><stop offset="1" stop-color="#D54003"/></linearGradient><linearGradient id="paint18_linear" x1="169.996" y1="97.19" x2="169.996" y2="215.647" gradientUnits="userSpaceOnUse"><stop stop-color="#FF5D00"/><stop offset="1" stop-color="#D54003"/></linearGradient><linearGradient id="paint19_linear" x1="271.882" y1="118.222" x2="200.284" y2="46.625" gradientUnits="userSpaceOnUse"><stop stop-color="#FF5D00" stop-opacity="0"/><stop offset="1" stop-color="#D54003"/></linearGradient><clipPath id="clip0"><path fill="#fff" d="M0 0h340v340H0z"/></clipPath></defs></svg>