<svg width="26" height="26" fill="none" xmlns="http://www.w3.org/2000/svg"><path d="M17.875 26h-9.75A8.126 8.126 0 010 17.875v-9.75A8.126 8.126 0 018.125 0h9.75A8.126 8.126 0 0126 8.125v9.75A8.126 8.126 0 0117.875 26zm5.688-17.875a5.694 5.694 0 00-5.688-5.688h-9.75a5.694 5.694 0 00-5.688 5.688v9.75a5.694 5.694 0 005.688 5.688h9.75a5.694 5.694 0 005.688-5.688v-9.75z" fill="#000"/><path d="M13 19.5a6.5 6.5 0 110-13 6.5 6.5 0 010 13zm0-10.563A4.068 4.068 0 008.937 13 4.067 4.067 0 0013 17.063 4.067 4.067 0 0017.063 13 4.068 4.068 0 0013 8.937zM19.987 19.121a.866.866 0 110 1.732.866.866 0 010-1.732z" fill="#000"/></svg>