<svg width="372" height="364" fill="none" xmlns="http://www.w3.org/2000/svg"><path d="M157.143 263.935h57.714v76.39h-57.714v-76.39z" fill="url(#paint0_linear)"/><path d="M252.931 363.882H119.07c-9.646 0-17.466-7.82-17.466-17.465 0-9.646 7.82-17.465 17.466-17.465h133.861c9.646 0 17.465 7.819 17.465 17.465 0 9.645-7.819 17.465-17.465 17.465z" fill="url(#paint1_linear)"/><path d="M157.143 288.641l51.683 51.683h6.032v-76.389h-57.715v24.706z" fill="url(#paint2_linear)"/><path d="M344.207 288.642H27.794C12.443 288.642 0 276.199 0 260.849V55.487c0-15.35 12.444-27.793 27.794-27.793h316.413c15.35 0 27.794 12.444 27.794 27.793V260.85c-.001 15.35-12.445 27.793-27.794 27.793z" fill="url(#paint3_linear)"/><path d="M254.753 27.694l42.112 42.111v194.129h-42.112V27.694z" fill="url(#paint4_linear)"/><path d="M323.231 263.934H48.768c-12.837 0-23.243-10.406-23.243-23.243V75.645c0-12.837 10.406-23.244 23.243-23.244h274.463c12.837 0 23.244 10.407 23.244 23.244V240.69c0 12.838-10.407 23.243-23.244 23.243z" fill="url(#paint5_linear)"/><path d="M279.461 52.401h-24.708v211.533h42.112V69.805l-17.404-17.404z" fill="url(#paint6_linear)"/><path d="M0 237.43v23.418c0 15.35 12.444 27.793 27.794 27.793h316.413c15.35 0 27.794-12.443 27.794-27.793V237.43H0z" fill="url(#paint7_linear)"/><path d="M184.514 96.365l23.158 23.158v144.411h-23.158V96.365z" fill="url(#paint8_linear)"/><path d="M318.725 148.747l23.158 23.158v74.567c0 9.644-7.818 17.462-17.462 17.462h-5.696V148.747z" fill="url(#paint9_linear)"/><path d="M187.476 263.934H136.75V102.467c0-5.389 4.368-9.758 9.758-9.758h31.211c5.389 0 9.758 4.368 9.758 9.758v161.467h-.001z" fill="url(#paint10_linear)"/><path d="M254.753 263.934h-50.726V9.876c0-5.389 4.368-9.758 9.758-9.758h31.211c5.389 0 9.758 4.369 9.758 9.758v254.058h-.001z" fill="url(#paint11_linear)"/><path d="M322.031 263.934h-50.726V155.996c0-5.389 4.368-9.758 9.758-9.758h31.211c5.388 0 9.758 4.369 9.758 9.758v107.938h-.001z" fill="url(#paint12_linear)"/><path d="M66.285 113.518h-23.59a3.889 3.889 0 01-3.888-3.889V99.013a3.889 3.889 0 013.889-3.889h23.589a3.889 3.889 0 013.89 3.89v10.615a3.889 3.889 0 01-3.89 3.889zM123.551 113.518H81.474a3.889 3.889 0 01-3.89-3.889V99.013a3.889 3.889 0 013.89-3.889h42.077a3.889 3.889 0 013.889 3.89v10.615a3.889 3.889 0 01-3.889 3.889zM99.962 141.223h23.589a3.889 3.889 0 003.889-3.889v-10.616a3.889 3.889 0 00-3.889-3.889H99.962a3.889 3.889 0 00-3.89 3.889v10.616a3.89 3.89 0 003.89 3.889zM42.696 141.223h42.077a3.889 3.889 0 003.89-3.889v-10.616a3.889 3.889 0 00-3.89-3.889H42.696a3.889 3.889 0 00-3.89 3.889v10.616a3.89 3.89 0 003.89 3.889zM66.285 168.929h-23.59a3.889 3.889 0 01-3.888-3.889v-10.616a3.889 3.889 0 013.889-3.889h23.589a3.889 3.889 0 013.89 3.889v10.616a3.889 3.889 0 01-3.89 3.889z" fill="#7ACBFF"/><defs><linearGradient id="paint0_linear" x1="157.143" y1="302.129" x2="214.858" y2="302.129" gradientUnits="userSpaceOnUse"><stop stop-color="#2F73A0"/><stop offset="1" stop-color="#174461"/></linearGradient><linearGradient id="paint1_linear" x1="186" y1="332.154" x2="186" y2="356.322" gradientUnits="userSpaceOnUse"><stop stop-color="#2F73A0"/><stop offset="1" stop-color="#174461"/></linearGradient><linearGradient id="paint2_linear" x1="201.835" y1="320.351" x2="185.059" y2="273.669" gradientUnits="userSpaceOnUse"><stop stop-color="#092A40" stop-opacity="0"/><stop offset="1" stop-color="#092A40"/></linearGradient><linearGradient id="paint3_linear" x1="93.231" y1="65.399" x2="289.466" y2="261.634" gradientUnits="userSpaceOnUse"><stop stop-color="#2F73A0"/><stop offset="1" stop-color="#174461"/></linearGradient><linearGradient id="paint4_linear" x1="240.057" y1="135.898" x2="209.787" y2="115.475" gradientUnits="userSpaceOnUse"><stop stop-color="#092A40" stop-opacity="0"/><stop offset="1" stop-color="#092A40"/></linearGradient><linearGradient id="paint5_linear" x1="107.931" y1="80.099" x2="273.071" y2="245.24" gradientUnits="userSpaceOnUse"><stop stop-color="#EDF5FF"/><stop offset="1" stop-color="#C7E9FF"/></linearGradient><linearGradient id="paint6_linear" x1="291.035" y1="158.168" x2="244.716" y2="158.168" gradientUnits="userSpaceOnUse"><stop stop-color="#7ACBFF" stop-opacity="0"/><stop offset="1" stop-color="#2F73A0"/></linearGradient><linearGradient id="paint7_linear" x1="186" y1="255.761" x2="186" y2="288.733" gradientUnits="userSpaceOnUse"><stop stop-color="#092A40" stop-opacity="0"/><stop offset="1" stop-color="#092A40"/></linearGradient><linearGradient id="paint8_linear" x1="202.29" y1="180.15" x2="182.33" y2="180.15" gradientUnits="userSpaceOnUse"><stop stop-color="#7ACBFF" stop-opacity="0"/><stop offset="1" stop-color="#2F73A0"/></linearGradient><linearGradient id="paint9_linear" x1="336.502" y1="206.34" x2="316.541" y2="206.34" gradientUnits="userSpaceOnUse"><stop stop-color="#7ACBFF" stop-opacity="0"/><stop offset="1" stop-color="#2F73A0"/></linearGradient><linearGradient id="paint10_linear" x1="128.702" y1="147.768" x2="199.377" y2="218.444" gradientUnits="userSpaceOnUse"><stop stop-color="#FF755C"/><stop offset="1" stop-color="#FF4181"/></linearGradient><linearGradient id="paint11_linear" x1="181.672" y1="87.166" x2="282.611" y2="188.105" gradientUnits="userSpaceOnUse"><stop stop-color="#FFCE47"/><stop offset="1" stop-color="#FF9356"/></linearGradient><linearGradient id="paint12_linear" x1="271.527" y1="182.804" x2="324.708" y2="235.984" gradientUnits="userSpaceOnUse"><stop stop-color="#7ACBFF"/><stop offset="1" stop-color="#45A2E0"/></linearGradient></defs></svg>