<svg width="44" height="44" fill="none" xmlns="http://www.w3.org/2000/svg"><path d="M40.133 0H3.867A3.872 3.872 0 000 3.867v36.266A3.872 3.872 0 003.867 44h36.266A3.872 3.872 0 0044 40.133V3.867A3.872 3.872 0 0040.133 0zm1.289 40.133c0 .71-.578 1.289-1.29 1.289H3.868a1.29 1.29 0 01-1.289-1.29V3.868c0-.71.578-1.289 1.29-1.289h36.265c.71 0 1.289.578 1.289 1.29v36.265z" fill="#282828"/><path d="M31.023 18.133c-.938 0-1.819.253-2.578.694v-7.14a1.29 1.29 0 00-2.578 0v20.626a1.29 1.29 0 102.578 0v-9.024a2.581 2.581 0 012.578-2.578 2.581 2.581 0 012.579 2.578v9.023a1.29 1.29 0 102.578 0V23.29a5.162 5.162 0 00-5.157-5.156zM22 24.578a1.29 1.29 0 00-1.29 1.29 5.162 5.162 0 01-5.155 5.155 5.162 5.162 0 01-5.157-5.156v-7.734a5.162 5.162 0 015.157-5.156 5.162 5.162 0 015.156 5.156 1.29 1.29 0 002.578 0c0-4.265-3.47-7.735-7.734-7.735-4.265 0-7.735 3.47-7.735 7.735v7.734c0 4.265 3.47 7.735 7.735 7.735 4.264 0 7.734-3.47 7.734-7.735A1.29 1.29 0 0022 24.578z" fill="#282828"/></svg>