<svg width="70" height="70" fill="none" xmlns="http://www.w3.org/2000/svg"><rect width="70" height="70" rx="16" fill="#FF4C60"/><path d="M49.593 42.205l-4.307-4.299c-1.539-1.535-4.154-.92-4.77 1.075-.46 1.382-1.999 2.15-3.383 1.842-3.077-.767-7.23-4.759-8-7.982-.461-1.382.462-2.917 1.846-3.378 2-.614 2.615-3.223 1.077-4.758l-4.307-4.298c-1.23-1.075-3.077-1.075-4.154 0l-2.922 2.916c-2.923 3.07.307 11.206 7.537 18.421 7.23 7.215 15.383 10.592 18.46 7.522l2.923-2.917c1.077-1.228 1.077-3.07 0-4.144z" fill="#fff"/></svg>