<svg width="32" height="32" fill="none" xmlns="http://www.w3.org/2000/svg"><g clip-path="url(#clip0)"><path d="M16.435 0C7.663.001 3 5.621 3 11.75c0 2.84 1.588 6.386 4.13 7.51.726.327.63-.072 1.254-2.459a.567.567 0 00-.136-.556C4.613 12.041 7.538 3.4 15.916 3.4c12.124 0 9.859 16.776 2.11 16.776-1.998 0-3.486-1.568-3.015-3.508.57-2.311 1.688-4.795 1.688-6.46 0-4.198-6.254-3.575-6.254 1.986 0 1.719.608 2.879.608 2.879S9.041 23.2 8.668 24.719c-.632 2.57.085 6.732.148 7.09.039.198.26.26.384.098.199-.26 2.63-3.73 3.312-6.238.248-.913 1.265-4.62 1.265-4.62.671 1.211 2.604 2.224 4.664 2.224C24.57 23.273 29 17.887 29 11.203 28.977 4.795 23.493 0 16.435 0z" fill="#000"/></g><defs><clipPath id="clip0"><path fill="#fff" d="M0 0h32v32H0z"/></clipPath></defs></svg>