<svg width="44" height="40" fill="none" xmlns="http://www.w3.org/2000/svg"><path d="M0 .53v38.94h44V.53H0zm29.167 2.578l-4.85 5.853H2.577V3.108h26.59zm12.255 33.783H2.578V11.539h22.95l6.988-8.43h8.906V36.89z" fill="#282828"/><path d="M5.529 4.75h2.578v2.592H5.529V4.75zM10.284 4.75h2.578v2.592h-2.578V4.75zM15.04 4.75h2.577v2.592H15.04V4.75zM17.582 25.973a2.194 2.194 0 01-2.19 2.191 2.194 2.194 0 01-2.192-2.191v-8.035h-2.578v8.035c0 2.63 2.14 4.77 4.77 4.77 2.63 0 4.769-2.14 4.769-4.77v-8.035h-2.579v8.035zM29.896 17.895l-2.104 3.79-2.104-3.79h-2.95l3.58 6.445-3.58 6.445h2.95l2.104-3.79 2.104 3.79h2.95l-3.58-6.445 3.58-6.445h-2.95z" fill="#282828"/></svg>