<svg width="48" height="48" fill="none" xmlns="http://www.w3.org/2000/svg"><path d="M45.942 1.12a3.8 3.8 0 00-5.107-.257l-13.43 10.971H4.69a3.758 3.758 0 00-3.754 3.753v22.628a3.758 3.758 0 003.754 3.753h10.67v3.22h-2.365a1.406 1.406 0 000 2.811h15.047a1.406 1.406 0 000-2.812h-2.365V41.97h10.67a3.758 3.758 0 003.754-3.754V13.697L46.2 6.225a3.8 3.8 0 00-.258-5.105zM26.499 17.462c.043-.847.43-1.609 1.089-2.146l2.34-1.911 3.735 3.735-1.916 2.348a2.926 2.926 0 01-2.144 1.082 2.923 2.923 0 01-2.24-.864c-.6-.6-.907-1.397-.864-2.244zm-1.13 9.073c-.622.623-1.66.91-3.084.852a12.783 12.783 0 00-2.785.174c.14-.783.217-1.707.173-2.785-.057-1.424.23-2.462.853-3.085a3.403 3.403 0 012.422-1.003c.915 0 1.775.356 2.422 1.003a3.429 3.429 0 010 4.844zm-2.503 18.652h-4.693V41.97h4.693v3.218zm14.424-6.972a.943.943 0 01-.942.941H4.69a.943.943 0 01-.942-.94v-1.2h33.54v1.2zm0-4.012H3.75V15.587c0-.519.422-.94.941-.94h19.815a5.777 5.777 0 00-.815 3.274 6.196 6.196 0 00-5.153 1.782c-1.201 1.2-1.764 2.945-1.675 5.185.12 2.982-.868 4.179-.945 4.267a1.406 1.406 0 001.988 1.988c.088-.076 1.285-1.065 4.267-.945 2.24.09 3.984-.474 5.186-1.675a6.228 6.228 0 001.778-5.147 5.77 5.77 0 00.607.003 5.784 5.784 0 004.181-2.112l3.365-4.124v17.06zM17.929 31.12l-.022.022a2.19 2.19 0 00.022-.021zm-1.988-1.988l-.022.021.021-.021zM44.02 4.447L35.45 14.95l-3.334-3.333L42.614 3.04a.996.996 0 011.34.067c.363.365.392.94.067 1.339z" fill="#282828"/></svg>